<svg xmlns="http://www.w3.org/2000/svg" viewBox="0 0 37 32">

<symbol id="icon-camera-header" viewBox="0 0 32 32">
<path fill="#bea69e" opacity="0.4" style="fill: var(--color1, #bea69e)" d="M21 17c0 1.326-0.527 2.598-1.464 3.536s-2.209 1.464-3.536 1.464-2.598-0.527-3.536-1.464c-0.938-0.938-1.464-2.21-1.464-3.536s0.527-2.598 1.464-3.536c0.938-0.938 2.209-1.464 3.536-1.464s2.598 0.527 3.536 1.464c0.938 0.938 1.464 2.209 1.464 3.536z"></path>
<path fill="#bea69e" opacity="0.4" style="fill: var(--color1, #bea69e)" d="M4 8c-1.061 0-2.078 0.421-2.828 1.172s-1.172 1.768-1.172 2.828v12c0 1.061 0.421 2.078 1.172 2.828s1.768 1.172 2.828 1.172h24c1.061 0 2.078-0.421 2.828-1.172s1.172-1.768 1.172-2.828v-12c0-1.061-0.421-2.078-1.172-2.828s-1.768-1.172-2.828-1.172h-2.344c-1.061-0-2.078-0.422-2.828-1.172l-1.656-1.656c-0.75-0.75-1.767-1.172-2.828-1.172h-4.688c-1.061 0-2.078 0.422-2.828 1.172l-1.656 1.656c-0.75 0.75-1.767 1.172-2.828 1.172h-2.344zM5 12c-0.265 0-0.52-0.105-0.707-0.293s-0.293-0.442-0.293-0.707c0-0.265 0.105-0.52 0.293-0.707s0.442-0.293 0.707-0.293c0.265 0 0.52 0.105 0.707 0.293s0.293 0.442 0.293 0.707c0 0.265-0.105 0.52-0.293 0.707s-0.442 0.293-0.707 0.293zM23 17c0 1.857-0.737 3.637-2.050 4.95s-3.093 2.050-4.95 2.050c-1.857 0-3.637-0.737-4.95-2.050s-2.050-3.093-2.050-4.95c0-1.857 0.738-3.637 2.050-4.95s3.093-2.050 4.95-2.050c1.857 0 3.637 0.738 4.95 2.050s2.050 3.093 2.050 4.95z"></path>
</symbol>

<symbol id="icon-favicon" viewBox="0 0 32 32">
<path fill="#bea69e" style="fill: var(--color1, #bea69e)" d="M21.161 18.159c0 2.846-2.315 5.161-5.161 5.161s-5.16-2.315-5.16-5.161c0-2.846 2.314-5.161 5.16-5.161s5.161 2.316 5.161 5.161zM32 10.831v14.658c0 1.954-1.584 3.538-3.538 3.538h-24.923c-1.954 0-3.538-1.584-3.538-3.538v-14.658c0-1.954 1.584-3.538 3.538-3.538h4.352v-1.224c0-1.71 1.385-3.096 3.096-3.096h10.026c1.711 0 3.096 1.386 3.096 3.096v1.223h4.352c1.954 0.001 3.538 1.585 3.538 3.539zM23.815 18.159c0-4.309-3.506-7.815-7.815-7.815s-7.814 3.506-7.814 7.815c0 4.309 3.506 7.815 7.814 7.815s7.815-3.506 7.815-7.815z"></path>
</symbol>
<symbol id="icon-star1" viewBox="0 0 32 32">
<path fill="#bea69e" style="fill: var(--color1, #bea69e); stroke: var(--color1, #bea69e)" stroke="#bea69e" stroke-linejoin="round" stroke-linecap="round" stroke-miterlimit="4" stroke-width="3" d="M16 4l3.708 7.9 8.292 1.274-6 6.144 1.416 8.682-7.416-4.1-7.416 4.1 1.416-8.68-6-6.148 8.292-1.274 3.708-7.898z"></path>
<symbol id="icon-Vector" viewBox="0 0 32 32">
<path fill="#fff" style="fill: var(--color2, #fff)" opacity="0.2" stroke-linejoin="round" stroke-linecap="round" stroke-miterlimit="4" stroke-width="3.4286" stroke="#000" d="M16 2.286l4.238 9.027 9.477 1.457-6.857 7.023 1.618 9.922-8.475-4.687-8.475 4.687 1.618-9.922-6.857-7.023 9.477-1.457 4.238-9.027z"></path>
</symbol>

</svg>
