<svg xmlns="http://www.w3.org/2000/svg" viewBox="0 0 37 32">
  <path fill="#bea69e" d="M24.184 18.468c0 3.252-2.646 5.898-5.898 5.898s-5.897-2.646-5.897-5.898c0-3.252 2.645-5.898 5.897-5.898s5.898 2.647 5.898 5.898zM36.571 10.093v16.752c0 2.233-1.811 4.044-4.044 4.044h-28.484c-2.233 0-4.044-1.811-4.044-4.044v-16.752c0-2.233 1.811-4.044 4.044-4.044h4.974v-1.399c0-1.954 1.583-3.538 3.538-3.538h11.459c1.955 0 3.538 1.584 3.538 3.538v1.398h4.974c2.233 0.001 4.044 1.812 4.044 4.045zM27.217 18.468c0-4.925-4.006-8.931-8.931-8.931-4.924 0-8.93 4.007-8.93 8.931s4.007 8.931 8.93 8.931c4.925 0 8.931-4.007 8.931-8.931z"></path>
</svg>
